<svg width="22" height="22" viewBox="0 0 22 22" fill="none" xmlns="http://www.w3.org/2000/svg">
<path d="M11.0003 20.166C16.0512 20.166 20.167 16.0502 20.167 10.9993C20.167 5.94851 16.0512 1.83268 11.0003 1.83268C5.94949 1.83268 1.83366 5.94851 1.83366 10.9993C1.83366 16.0502 5.94949 20.166 11.0003 20.166ZM7.27866 11.6685L10.5145 8.43268C10.652 8.29518 10.8262 8.23101 11.0003 8.23101C11.1745 8.23101 11.3487 8.29518 11.4862 8.43268L14.722 11.6685C14.9878 11.9343 14.9878 12.3743 14.722 12.6402C14.4562 12.906 14.0162 12.906 13.7503 12.6402L11.0003 9.89018L8.25032 12.6402C7.98449 12.906 7.54449 12.906 7.27866 12.6402C7.01283 12.3743 7.01283 11.9435 7.27866 11.6685Z" fill="#F64E2A"/>
</svg>
