<svg width="24" height="25" viewBox="0 0 24 25" fill="none" xmlns="http://www.w3.org/2000/svg">
<rect y="0.5" width="24" height="24" rx="6" fill="#FF3A2F"/>
<path fill-rule="evenodd" clip-rule="evenodd" d="M12 5.0517C16.1136 5.0517 19.4483 8.3864 19.4483 12.5C19.4483 16.6135 16.1136 19.9482 12 19.9482C7.88646 19.9482 4.55176 16.6135 4.55176 12.5C4.55176 8.3864 7.88646 5.0517 12 5.0517ZM16.5029 8.85521L8.35506 17.0031C9.3505 17.8098 10.6187 18.2931 11.9998 18.2931C15.1993 18.2931 17.7929 15.6994 17.7929 12.5C17.7929 11.1189 17.3096 9.85065 16.5029 8.85521ZM6.2069 12.4999C6.2069 9.3005 8.80056 6.70684 12 6.70684C13.2208 6.70684 14.3534 7.08446 15.2874 7.72926L7.22932 15.7873C6.58452 14.8533 6.2069 13.7207 6.2069 12.4999Z" fill="white"/>
</svg>
