<svg width="38" height="38" viewBox="0 0 38 38" fill="none" xmlns="http://www.w3.org/2000/svg">
<rect y="0.00012207" width="38" height="38" rx="8.18966" fill="#D674ED"/>
<path fill-rule="evenodd" clip-rule="evenodd" d="M18.325 13.4586V15.55H17.4C14.4668 15.55 11.9897 17.4999 11.1933 20.175H10V23.875H11.1933C11.9897 26.5501 14.4668 28.5 17.4 28.5C18.6099 28.5 19.8901 28.5 21.1 28.5C24.0332 28.5 26.5103 26.5501 27.3068 23.875H28.5V20.175H27.3068C26.5103 17.4999 24.0332 15.55 21.1 15.55H20.175V13.4641C20.7328 13.1441 21.1083 12.5428 21.1083 11.8546C21.1083 10.8307 20.2777 10 19.2546 10C18.2306 10 17.4 10.8307 17.4 11.8546C17.4 12.5391 17.7719 13.1376 18.325 13.4586ZM12.775 22.025C12.775 19.4711 14.8461 17.4 17.4 17.4C18.6099 17.4 19.8901 17.4 21.1 17.4C23.6539 17.4 25.725 19.4711 25.725 22.025C25.725 22.0287 25.725 22.0333 25.725 22.037C25.725 24.5789 23.6539 26.65 21.1 26.65C19.8901 26.65 18.6099 26.65 17.4 26.65C14.8461 26.65 12.775 24.5789 12.775 22.025ZM21.1 21.1V22.95H22.95V21.1H21.1ZM15.55 21.1V22.95H17.4V21.1H15.55Z" fill="white"/>
</svg>
