<svg width="38" height="38" viewBox="0 0 38 38" fill="none" xmlns="http://www.w3.org/2000/svg">
<g clip-path="url(#clip0_0_2247)">
<path d="M37.43 23.5966C34.8923 33.7752 24.583 39.9698 14.4032 37.4315C4.22749 34.8939 -1.9671 24.584 0.571772 14.4059C3.10827 4.22607 13.4176 -1.96912 23.5944 0.568573C33.7737 3.10626 39.9677 13.4173 37.43 23.5966Z" fill="white"/>
<path d="M27.3774 16.2939C27.7556 13.7657 25.8306 12.4066 23.1986 11.4999L24.0524 8.07519L21.9677 7.55566L21.1365 10.8902C20.5884 10.7536 20.0256 10.6248 19.4662 10.4971L20.3034 7.14062L18.22 6.62109L17.3656 10.0447C16.9119 9.94134 16.4666 9.83922 16.0344 9.73175L16.0367 9.72106L13.1618 9.00322L12.6072 11.2298C12.6072 11.2298 14.154 11.5842 14.1213 11.6062C14.9656 11.817 15.1182 12.3757 15.0927 12.8187L14.1201 16.7202C14.1783 16.735 14.2537 16.7564 14.3368 16.7897C14.2674 16.7724 14.1931 16.7534 14.1166 16.735L12.7533 22.2005C12.65 22.457 12.3881 22.8418 11.798 22.6957C11.8187 22.726 10.2827 22.3175 10.2827 22.3175L9.2478 24.7038L11.9606 25.38C12.4653 25.5065 12.9599 25.6389 13.4468 25.7636L12.5841 29.2275L14.6664 29.7471L15.5208 26.3199C16.0896 26.4743 16.6418 26.6168 17.1821 26.751L16.3306 30.1621L18.4153 30.6816L19.278 27.2242C22.8328 27.8969 25.5059 27.6256 26.631 24.4104C27.5377 21.8217 26.5859 20.3284 24.7156 19.3547C26.0776 19.0406 27.1036 18.1446 27.3774 16.2939ZM22.6143 22.973C21.9701 25.5617 17.6114 24.1623 16.1982 23.8113L17.343 19.2222C18.7561 19.5749 23.2876 20.2732 22.6143 22.973ZM23.2591 16.2565C22.6713 18.6113 19.0435 17.4149 17.8667 17.1216L18.9046 12.9594C20.0814 13.2527 23.8713 13.8001 23.2591 16.2565Z" fill="#3C3C48"/>
</g>
<defs>
<clipPath id="clip0_0_2247">
<rect width="38" height="38" fill="white"/>
</clipPath>
</defs>
</svg>
