<svg width="22" height="22" viewBox="0 0 22 22" fill="none" xmlns="http://www.w3.org/2000/svg">
<path d="M17.4167 5.5H4.58333C3.57081 5.5 2.75 6.32081 2.75 7.33333V17.4167C2.75 18.4292 3.57081 19.25 4.58333 19.25H17.4167C18.4292 19.25 19.25 18.4292 19.25 17.4167V7.33333C19.25 6.32081 18.4292 5.5 17.4167 5.5Z" stroke="white" stroke-width="1.5"/>
<path d="M2.75 8.25C2.75 6.95364 2.75 6.30545 3.28697 5.90273C3.82394 5.5 4.68818 5.5 6.41667 5.5H15.5833C17.3118 5.5 18.176 5.5 18.713 5.90273C19.25 6.30545 19.25 6.95364 19.25 8.25H2.75Z" fill="white"/>
<path d="M6.41675 2.75V5.5" stroke="white" stroke-width="1.5" stroke-linecap="round"/>
<path d="M15.5833 2.75V5.5" stroke="white" stroke-width="1.5" stroke-linecap="round"/>
</svg>
