<svg width="30" height="30" viewBox="0 0 30 30" fill="none" xmlns="http://www.w3.org/2000/svg">
<rect width="30" height="30" rx="6" fill="#F64E2A"/>
<path d="M11.2051 22.7496V20.3594C11.2051 19.8071 11.6528 19.3594 12.2051 19.3594H13.6197C14.172 19.3594 14.6197 19.8071 14.6197 20.3594V22.7496C14.6197 23.3019 14.172 23.7496 13.6197 23.7496H12.2051C11.6528 23.7496 11.2051 23.3019 11.2051 22.7496Z" fill="white"/>
<path d="M23.4003 19.5859V7.42629C23.4003 5.84128 21.6445 4.88609 20.3138 5.74715L15.6035 8.795C15.2798 9.00443 14.9025 9.11586 14.517 9.11586H9.30273C8.19816 9.11586 7.30273 10.0113 7.30273 11.1159V15.8963C7.30273 17.0009 8.19817 17.8963 9.30274 17.8963H14.517C14.9025 17.8963 15.2798 18.0078 15.6035 18.2172L20.3138 21.2651C21.6445 22.1261 23.4003 21.1709 23.4003 19.5859Z" fill="white"/>
</svg>
