<svg width="38" height="38" viewBox="0 0 38 38" fill="none" xmlns="http://www.w3.org/2000/svg">
<rect width="38" height="38" rx="8.18966" fill="#FE7763"/>
<path d="M15.6099 27.4998V25.4388C15.6099 24.8866 16.0576 24.4388 16.6099 24.4388H17.7684C18.3207 24.4388 18.7684 24.8866 18.7684 25.4388V27.4998C18.7684 28.0521 18.3207 28.4998 17.7684 28.4998H16.6099C16.0576 28.4998 15.6099 28.0521 15.6099 27.4998Z" fill="white"/>
<path d="M26.8902 24.3724V13.6762C26.8902 12.0912 25.1345 11.136 23.8037 11.997L19.7154 14.6424C19.3917 14.8519 19.0144 14.9633 18.6289 14.9633H14C12.8954 14.9633 12 15.8587 12 16.9633V21.0852C12 22.1898 12.8954 23.0852 14 23.0852H18.6289C19.0144 23.0852 19.3917 23.1967 19.7154 23.4061L23.8037 26.0515C25.1345 26.9126 26.8902 25.9574 26.8902 24.3724Z" fill="white"/>
</svg>
