<svg width="24" height="25" viewBox="0 0 24 25" fill="none" xmlns="http://www.w3.org/2000/svg">
<rect y="0.5" width="24" height="24" rx="5.17241" fill="#43A8D6"/>
<path d="M18.2049 9.91548H5.77676C5.34777 9.91548 5 9.56771 5 9.13872V6.80415C5 6.37685 5.349 6.02986 5.77629 6.02622C10.3993 5.98688 10.0489 5.87566 10.0489 6.77824C10.0489 7.16662 10.0489 7.19683 11.9908 7.19683H18.2049C18.6339 7.19683 18.9816 7.54459 18.9816 7.97358V9.13872C18.9816 9.56771 18.6339 9.91548 18.2049 9.91548Z" fill="white"/>
<path d="M5 18.0206V11.8065C5 11.3775 5.34777 11.0298 5.77676 11.0298H18.2049C18.6339 11.0298 18.9816 11.3775 18.9816 11.8065V18.0206C18.9816 18.4496 18.6339 18.7973 18.2049 18.7973H5.77676C5.34777 18.7973 5 18.4496 5 18.0206Z" fill="white"/>
</svg>
