<svg width="22" height="22" viewBox="0 0 22 22" fill="none" xmlns="http://www.w3.org/2000/svg">
<path d="M7.33301 7.3335V5.50016C7.33301 3.47512 8.97463 1.8335 10.9997 1.8335L16.4997 1.8335C18.5247 1.8335 20.1663 3.47512 20.1663 5.50016V11.0002C20.1663 13.0252 18.5247 14.6668 16.4997 14.6668H14.6663M7.33301 7.3335H5.49967C3.47463 7.3335 1.83301 8.97512 1.83301 11.0002V16.5002C1.83301 18.5252 3.47463 20.1668 5.49967 20.1668H10.9997C13.0247 20.1668 14.6663 18.5252 14.6663 16.5002V14.6668M7.33301 7.3335H10.9997C13.0247 7.3335 14.6663 8.97512 14.6663 11.0002V14.6668" stroke="white" stroke-width="1.5" stroke-linejoin="round"/>
</svg>
