<svg width="16" height="17" viewBox="0 0 16 17" fill="none" xmlns="http://www.w3.org/2000/svg">
<path d="M2.61816 2.25C2.8343 2.25004 3.04035 2.33899 3.18945 2.49512L8.01172 7.36328L12.8984 2.49414L12.9004 2.49219L12.9619 2.43848C13.2782 2.18851 13.7378 2.2149 14.0225 2.5127H14.0215C14.3269 2.82388 14.3257 3.32469 14.0186 3.63477L14.0176 3.63574L9.13086 8.50488L14.0176 13.3896L14.0186 13.3906L14.0732 13.4512C14.3256 13.7635 14.3066 14.2221 14.0186 14.5137L14.0195 14.5146C13.872 14.6651 13.6706 14.7492 13.46 14.749L13.4609 14.75L13.458 14.749L13.457 14.75V14.749C13.2452 14.7503 13.0419 14.6659 12.8945 14.5137V14.5127L8.00879 9.58887L3.12402 14.458L3.11719 14.4648L3.10938 14.4717C2.94651 14.6107 2.7349 14.6796 2.52148 14.6621V14.6611C2.31689 14.6572 2.12231 14.5732 1.97949 14.4258L1.98047 14.4248C1.67426 14.1137 1.67398 13.6131 1.98145 13.3027L1.98242 13.3018L6.86816 8.43848L2.0459 3.57617L2.03906 3.56836C1.76482 3.26669 1.7648 2.8046 2.03906 2.50293L2.04102 2.5L2.10059 2.44336C2.24358 2.3194 2.42707 2.25 2.61816 2.25Z" fill="#F64E2A" stroke="#F64E2A" stroke-width="0.5"/>
</svg>
