<svg width="11" height="12" viewBox="0 0 11 12" fill="none" xmlns="http://www.w3.org/2000/svg">
<path d="M4.27778 9.60006C4.43985 9.60006 4.59529 9.53685 4.7099 9.42433C4.8245 9.3118 4.88889 9.15919 4.88889 9.00006V5.40006C4.88889 5.24093 4.8245 5.08832 4.7099 4.9758C4.59529 4.86328 4.43985 4.80006 4.27778 4.80006C4.1157 4.80006 3.96026 4.86328 3.84566 4.9758C3.73105 5.08832 3.66667 5.24093 3.66667 5.40006V9.00006C3.66667 9.15919 3.73105 9.3118 3.84566 9.42433C3.96026 9.53685 4.1157 9.60006 4.27778 9.60006ZM10.3889 2.40006H7.94444V1.80006C7.94444 1.32267 7.75129 0.864834 7.40747 0.527269C7.06366 0.189703 6.59734 6.10352e-05 6.11111 6.10352e-05H4.88889C4.40266 6.10352e-05 3.93634 0.189703 3.59253 0.527269C3.24871 0.864834 3.05556 1.32267 3.05556 1.80006V2.40006H0.611111C0.449034 2.40006 0.293596 2.46328 0.17899 2.5758C0.0643847 2.68832 0 2.84093 0 3.00006C0 3.15919 0.0643847 3.3118 0.17899 3.42433C0.293596 3.53685 0.449034 3.60006 0.611111 3.60006H1.22222V10.2001C1.22222 10.6775 1.41538 11.1353 1.75919 11.4729C2.10301 11.8104 2.56933 12.0001 3.05556 12.0001H7.94444C8.43067 12.0001 8.89699 11.8104 9.24081 11.4729C9.58462 11.1353 9.77778 10.6775 9.77778 10.2001V3.60006H10.3889C10.551 3.60006 10.7064 3.53685 10.821 3.42433C10.9356 3.3118 11 3.15919 11 3.00006C11 2.84093 10.9356 2.68832 10.821 2.5758C10.7064 2.46328 10.551 2.40006 10.3889 2.40006ZM4.27778 1.80006C4.27778 1.64093 4.34216 1.48832 4.45677 1.3758C4.57137 1.26328 4.72681 1.20006 4.88889 1.20006H6.11111C6.27319 1.20006 6.42863 1.26328 6.54323 1.3758C6.65784 1.48832 6.72222 1.64093 6.72222 1.80006V2.40006H4.27778V1.80006ZM8.55556 10.2001C8.55556 10.3592 8.49117 10.5118 8.37657 10.6243C8.26196 10.7368 8.10652 10.8001 7.94444 10.8001H3.05556C2.89348 10.8001 2.73804 10.7368 2.62343 10.6243C2.50883 10.5118 2.44444 10.3592 2.44444 10.2001V3.60006H8.55556V10.2001ZM6.72222 9.60006C6.8843 9.60006 7.03974 9.53685 7.15434 9.42433C7.26895 9.3118 7.33333 9.15919 7.33333 9.00006V5.40006C7.33333 5.24093 7.26895 5.08832 7.15434 4.9758C7.03974 4.86328 6.8843 4.80006 6.72222 4.80006C6.56015 4.80006 6.40471 4.86328 6.2901 4.9758C6.1755 5.08832 6.11111 5.24093 6.11111 5.40006V9.00006C6.11111 9.15919 6.1755 9.3118 6.2901 9.42433C6.40471 9.53685 6.56015 9.60006 6.72222 9.60006Z" fill="#F64E2A"/>
</svg>
