<svg width="38" height="38" viewBox="0 0 38 38" fill="none" xmlns="http://www.w3.org/2000/svg">
<path d="M19.4564 12.5215H16.7417V17.8736H21.0127V20.1145H16.7417V25.4662H19.5894C20.3211 25.4662 25.5965 25.5488 25.5883 19.2395C25.5801 12.9302 20.4718 12.5215 19.4564 12.5215Z" fill="#C2A633"/>
<path d="M19 0C8.50649 0 0 8.50649 0 19C0 29.4935 8.50649 38 19 38C29.4935 38 38 29.4935 38 19C38 8.50649 29.4935 0 19 0ZM19.7465 29.2619H12.8657V20.1142H10.4401V17.8733H12.8655V8.72499H18.771C20.1681 8.72499 29.4217 8.43486 29.4217 19.1651C29.4217 30.0728 19.7467 29.2619 19.7467 29.2619H19.7465Z" fill="#C2A633"/>
</svg>
