<svg width="21" height="20" viewBox="0 0 21 20" fill="none" xmlns="http://www.w3.org/2000/svg">
<path fill-rule="evenodd" clip-rule="evenodd" d="M19.9337 1.19621C20.1515 0.9026 20.1273 0.485936 19.8611 0.21967C19.5682 -0.0732233 19.0933 -0.0732233 18.8004 0.21967L18.3866 0.63346L19.4473 1.69412L19.8611 1.28033L19.9337 1.19621ZM17.8563 1.16379L18.9169 2.22445L9.17387 11.9675C8.38124 12.7601 7.36469 13.0963 7.13125 13.0009L7.09976 12.981C6.95688 12.8381 7.24157 11.8613 7.97847 11.0484L8.11321 10.9069L17.8563 1.16379ZM3.66943 1.65774H13.1694C13.5836 1.65774 13.9194 1.99352 13.9194 2.40774C13.9194 2.78743 13.6373 3.10123 13.2712 3.15089L13.1694 3.15774H3.66943C3.02222 3.15774 2.4899 3.64961 2.42589 4.27993L2.41943 4.40774V16.4077C2.41943 17.0549 2.91131 17.5873 3.54163 17.6513L3.66943 17.6577H15.6694C16.3166 17.6577 16.849 17.1659 16.913 16.5355L16.9194 16.4077V6.76327C16.9194 6.34905 17.2552 6.01327 17.6694 6.01327C18.0491 6.01327 18.3629 6.29542 18.4126 6.6615L18.4194 6.76327V16.4077C18.4194 17.8703 17.2777 19.0661 15.837 19.1527L15.6694 19.1577H3.66943C2.2069 19.1577 1.01103 18.016 0.924452 16.5753L0.919434 16.4077V4.40774C0.919434 2.9452 2.06114 1.74933 3.50191 1.66275L3.66943 1.65774Z" fill="#F64E2A"/>
</svg>
