<svg width="24" height="25" viewBox="0 0 24 25" fill="none" xmlns="http://www.w3.org/2000/svg">
<path d="M10.5788 21.4143C9.22912 21.4143 7.96076 21.1582 6.77371 20.6459C5.58665 20.1337 4.55408 19.4386 3.67598 18.5605C2.79789 17.6824 2.10273 16.6498 1.59051 15.4628C1.07828 14.2757 0.822172 13.0073 0.822172 11.6577C0.822172 10.308 1.07828 9.03966 1.59051 7.8526C2.10273 6.66555 2.79789 5.63298 3.67598 4.75488C4.55408 3.87679 5.58665 3.18163 6.77371 2.66941C7.96076 2.15719 9.22912 1.90108 10.5788 1.90108C11.278 1.90108 11.9528 1.97018 12.6033 2.1084C13.2537 2.24662 13.8798 2.44582 14.4814 2.70599V4.90123C13.9123 4.57601 13.2984 4.3199 12.6399 4.1329C11.9813 3.9459 11.2943 3.8524 10.5788 3.8524C8.41607 3.8524 6.57451 4.6126 5.0541 6.133C3.5337 7.65341 2.7735 9.49496 2.7735 11.6577C2.7735 13.8204 3.5337 15.662 5.0541 17.1824C6.57451 18.7028 8.41607 19.463 10.5788 19.463C12.7415 19.463 14.5831 18.7028 16.1035 17.1824C17.6239 15.662 18.3841 13.8204 18.3841 11.6577C18.3841 11.1373 18.3312 10.6332 18.2255 10.1454C18.1198 9.65757 17.9776 9.186 17.7987 8.7307H19.8964C20.0427 9.20227 20.1525 9.6779 20.2256 10.1576C20.2988 10.6373 20.3354 11.1373 20.3354 11.6577C20.3354 13.0073 20.3598 12.4219 19.8476 13.609C19.3354 14.7961 16.3352 16.6335 15.4571 17.5116C14.579 18.3897 15.5709 20.1337 14.3839 20.6459C13.1968 21.1582 11.9285 21.4143 10.5788 21.4143ZM13.9936 10.682C14.4001 10.682 14.7457 10.5397 15.0302 10.2552C15.3148 9.9706 15.4571 9.62505 15.4571 9.21853C15.4571 8.812 15.3148 8.46646 15.0302 8.18189C14.7457 7.89732 14.4001 7.75504 13.9936 7.75504C13.5871 7.75504 13.2415 7.89732 12.957 8.18189C12.6724 8.46646 12.5301 8.812 12.5301 9.21853C12.5301 9.62505 12.6724 9.9706 12.957 10.2552C13.2415 10.5397 13.5871 10.682 13.9936 10.682ZM7.16397 10.682C7.5705 10.682 7.91605 10.5397 8.20061 10.2552C8.48518 9.9706 8.62746 9.62505 8.62746 9.21853C8.62746 8.812 8.48518 8.46646 8.20061 8.18189C7.91605 7.89732 7.5705 7.75504 7.16397 7.75504C6.75745 7.75504 6.4119 7.89732 6.12733 8.18189C5.84276 8.46646 5.70048 8.812 5.70048 9.21853C5.70048 9.62505 5.84276 9.9706 6.12733 10.2552C6.4119 10.5397 6.75745 10.682 7.16397 10.682ZM10.5788 17.0238C11.6845 17.0238 12.6887 16.7108 13.5911 16.0847C14.4936 15.4587 15.1481 14.6334 15.5547 13.609H5.60291C6.00944 14.6334 6.66395 15.4587 7.56643 16.0847C8.46892 16.7108 9.47304 17.0238 10.5788 17.0238Z" fill="#F64E2A"/>
<path d="M10.5788 21.4143C11.9285 21.4143 13.1968 21.1582 14.3839 20.6459C15.5709 20.1337 14.579 18.3897 15.4571 17.5116C16.3352 16.6335 19.3354 14.7961 19.8476 13.609C20.3598 12.4219 20.3354 13.0073 20.3354 11.6577C20.3354 10.308 20.0793 9.03966 19.5671 7.8526C19.0548 6.66555 18.3597 5.63298 17.4816 4.75488C16.6035 3.87679 15.5709 3.18163 14.3839 2.66941C13.1968 2.15719 11.9285 1.90108 10.5788 1.90108C9.87956 1.90108 9.20473 1.97018 8.55429 2.1084C7.90385 2.24662 7.2778 2.44582 6.67614 2.706V4.90123C7.24528 4.57601 7.85913 4.3199 8.5177 4.1329C9.17627 3.9459 9.8633 3.8524 10.5788 3.8524C12.7415 3.8524 14.5831 4.6126 16.1035 6.133C17.6239 7.65341 18.3841 9.49496 18.3841 11.6577C18.3841 13.8204 17.6239 15.662 16.1035 17.1824C14.5831 18.7028 12.7415 19.463 10.5788 19.463C8.41607 19.463 6.57451 18.7028 5.0541 17.1824C3.5337 15.662 2.7735 13.8204 2.7735 11.6577C2.7735 11.1373 2.82634 10.6332 2.93204 10.1454C3.03774 9.65757 3.18002 9.186 3.35889 8.7307H1.26122C1.11487 9.20227 1.00511 9.6779 0.931934 10.1576C0.858759 10.6373 0.822172 11.1373 0.822172 11.6577C0.822172 13.0073 1.07828 14.2757 1.59051 15.4628C2.10273 16.6498 2.79789 17.6824 3.67598 18.5605C4.55408 19.4386 5.58665 20.1337 6.77371 20.6459C7.96076 21.1582 9.22912 21.4143 10.5788 21.4143ZM7.16397 10.682C6.75745 10.682 6.4119 10.5397 6.12733 10.2552C5.84276 9.9706 5.70048 9.62505 5.70048 9.21853C5.70048 8.812 5.84276 8.46646 6.12733 8.18189C6.4119 7.89732 6.75745 7.75504 7.16397 7.75504C7.5705 7.75504 7.91605 7.89732 8.20061 8.18189C8.48518 8.46646 8.62746 8.812 8.62746 9.21853C8.62746 9.62505 8.48518 9.9706 8.20061 10.2552C7.91605 10.5397 7.5705 10.682 7.16397 10.682ZM13.9936 10.682C13.5871 10.682 13.2415 10.5397 12.957 10.2552C12.6724 9.9706 12.5301 9.62505 12.5301 9.21853C12.5301 8.812 12.6724 8.46646 12.957 8.18189C13.2415 7.89732 13.5871 7.75504 13.9936 7.75504C14.4001 7.75504 14.7457 7.89732 15.0302 8.18189C15.3148 8.46646 15.4571 8.812 15.4571 9.21853C15.4571 9.62505 15.3148 9.9706 15.0302 10.2552C14.7457 10.5397 14.4001 10.682 13.9936 10.682ZM10.5788 17.0238C9.47304 17.0238 8.46892 16.7108 7.56643 16.0847C6.66395 15.4587 6.00944 14.6334 5.60291 13.609H15.5547C15.1481 14.6334 14.4936 15.4587 13.5911 16.0847C12.6887 16.7108 11.6845 17.0238 10.5788 17.0238Z" fill="#F64E2A"/>
<mask id="mask0_1015_4636" style="mask-type:alpha" maskUnits="userSpaceOnUse" x="10" y="9" width="16" height="16">
<rect x="10.5786" y="9.90105" width="15.0244" height="15.0244" fill="#D9D9D9"/>
</mask>
<g mask="url(#mask0_1015_4636)">
<path d="M13.1919 23.0474C12.9728 23.0996 12.7824 23.0448 12.6207 22.8831C12.459 22.7214 12.4042 22.5309 12.4563 22.3118L13.0824 19.3226L16.1811 22.4214L13.1919 23.0474ZM16.1811 22.4214L13.0824 19.3226L20.2502 12.1547C20.4902 11.9148 20.7876 11.7948 21.1423 11.7948C21.4971 11.7948 21.7944 11.9148 22.0344 12.1547L23.349 13.4694C23.589 13.7093 23.709 14.0067 23.709 14.3614C23.709 14.7162 23.589 15.0135 23.349 15.2535L16.1811 22.4214ZM21.1423 13.0312L14.663 19.5104L15.9933 20.8407L22.4726 14.3614L21.1423 13.0312Z" fill="#F64E2A"/>
</g>
</svg>
