<svg width="21" height="21" viewBox="0 0 21 21" fill="none" xmlns="http://www.w3.org/2000/svg">
<g opacity="0.4">
<path d="M10.292 20.2445C8.94238 20.2445 7.67402 19.9884 6.48696 19.4761C5.29991 18.9639 4.26733 18.2688 3.38924 17.3907C2.51114 16.5126 1.81599 15.48 1.30376 14.293C0.791541 13.1059 0.535429 11.8375 0.535429 10.4879C0.535429 9.13821 0.791541 7.86986 1.30376 6.6828C1.81599 5.49575 2.51114 4.46318 3.38924 3.58508C4.26733 2.70699 5.29991 2.01183 6.48696 1.49961C7.67402 0.987386 8.94238 0.731275 10.292 0.731275C10.9913 0.731275 11.6661 0.800385 12.3165 0.938603C12.967 1.07682 13.593 1.27602 14.1947 1.5362V3.73143C13.6256 3.40621 13.0117 3.1501 12.3531 2.9631C11.6946 2.7761 11.0075 2.6826 10.292 2.6826C8.12933 2.6826 6.28777 3.4428 4.76736 4.9632C3.24696 6.48361 2.48675 8.32516 2.48675 10.4879C2.48675 12.6506 3.24696 14.4922 4.76736 16.0126C6.28777 17.533 8.12933 18.2932 10.292 18.2932C12.4548 18.2932 14.2963 17.533 15.8167 16.0126C17.3371 14.4922 18.0973 12.6506 18.0973 10.4879C18.0973 9.96753 18.0445 9.46343 17.9388 8.9756C17.8331 8.48777 17.6908 8.0162 17.5119 7.5609H19.6096C19.756 8.03247 19.8657 8.5081 19.9389 8.9878C20.0121 9.4675 20.0487 9.96753 20.0487 10.4879C20.0487 11.8375 19.9742 12.077 19.4999 13.5C18.9999 15 17.9999 16.5856 17.1949 17.3907C16.3168 18.2688 15.2842 18.9639 14.0971 19.4761C12.9101 19.9884 11.6417 20.2445 10.292 20.2445ZM13.7069 9.51222C14.1134 9.51222 14.4589 9.36993 14.7435 9.08537C15.0281 8.8008 15.1704 8.45525 15.1704 8.04873C15.1704 7.6422 15.0281 7.29666 14.7435 7.01209C14.4589 6.72752 14.1134 6.58524 13.7069 6.58524C13.3003 6.58524 12.9548 6.72752 12.6702 7.01209C12.3857 7.29666 12.2434 7.6422 12.2434 8.04873C12.2434 8.45525 12.3857 8.8008 12.6702 9.08537C12.9548 9.36993 13.3003 9.51222 13.7069 9.51222ZM6.87723 9.51222C7.28376 9.51222 7.6293 9.36993 7.91387 9.08537C8.19844 8.8008 8.34072 8.45525 8.34072 8.04873C8.34072 7.6422 8.19844 7.29666 7.91387 7.01209C7.6293 6.72752 7.28376 6.58524 6.87723 6.58524C6.4707 6.58524 6.12516 6.72752 5.84059 7.01209C5.55602 7.29666 5.41374 7.6422 5.41374 8.04873C5.41374 8.45525 5.55602 8.8008 5.84059 9.08537C6.12516 9.36993 6.4707 9.51222 6.87723 9.51222ZM10.292 15.854C11.3978 15.854 12.4019 15.541 13.3044 14.9149C14.2069 14.2889 14.8614 13.4636 15.2679 12.4392H5.31617C5.7227 13.4636 6.3772 14.2889 7.27969 14.9149C8.18218 15.541 9.18629 15.854 10.292 15.854Z" fill="white"/>
<path d="M10.292 20.2445C11.6417 20.2445 12.9101 19.9884 14.0971 19.4761C15.2842 18.9639 16.3168 18.2688 17.1949 17.3907C17.9999 16.5856 18.9999 15 19.4999 13.5C19.9742 12.077 20.0487 11.8375 20.0487 10.4879C20.0487 9.13821 19.7925 7.86986 19.2803 6.6828C18.7681 5.49575 18.0729 4.46318 17.1949 3.58508C16.3168 2.70699 15.2842 2.01183 14.0971 1.49961C12.9101 0.987386 11.6417 0.731275 10.292 0.731275C9.59282 0.731275 8.91799 0.800385 8.26755 0.938603C7.61711 1.07682 6.99106 1.27602 6.3894 1.5362V3.73143C6.95853 3.40621 7.57239 3.1501 8.23096 2.9631C8.88953 2.7761 9.57656 2.6826 10.292 2.6826C12.4548 2.6826 14.2963 3.4428 15.8167 4.9632C17.3371 6.48361 18.0973 8.32516 18.0973 10.4879C18.0973 12.6506 17.3371 14.4922 15.8167 16.0126C14.2963 17.533 12.4548 18.2932 10.292 18.2932C8.12933 18.2932 6.28777 17.533 4.76736 16.0126C3.24696 14.4922 2.48675 12.6506 2.48675 10.4879C2.48675 9.96753 2.5396 9.46343 2.6453 8.9756C2.75099 8.48777 2.89328 8.0162 3.07215 7.5609H0.974476C0.828127 8.03247 0.718365 8.5081 0.645191 8.9878C0.572016 9.4675 0.535429 9.96753 0.535429 10.4879C0.535429 11.8375 0.791541 13.1059 1.30376 14.293C1.81599 15.48 2.51114 16.5126 3.38924 17.3907C4.26733 18.2688 5.29991 18.9639 6.48696 19.4761C7.67402 19.9884 8.94238 20.2445 10.292 20.2445ZM6.87723 9.51222C6.4707 9.51222 6.12516 9.36993 5.84059 9.08537C5.55602 8.8008 5.41374 8.45525 5.41374 8.04873C5.41374 7.6422 5.55602 7.29666 5.84059 7.01209C6.12516 6.72752 6.4707 6.58524 6.87723 6.58524C7.28376 6.58524 7.6293 6.72752 7.91387 7.01209C8.19844 7.29666 8.34072 7.6422 8.34072 8.04873C8.34072 8.45525 8.19844 8.8008 7.91387 9.08537C7.6293 9.36993 7.28376 9.51222 6.87723 9.51222ZM13.7069 9.51222C13.3003 9.51222 12.9548 9.36993 12.6702 9.08537C12.3857 8.8008 12.2434 8.45525 12.2434 8.04873C12.2434 7.6422 12.3857 7.29666 12.6702 7.01209C12.9548 6.72752 13.3003 6.58524 13.7069 6.58524C14.1134 6.58524 14.4589 6.72752 14.7435 7.01209C15.0281 7.29666 15.1704 7.6422 15.1704 8.04873C15.1704 8.45525 15.0281 8.8008 14.7435 9.08537C14.4589 9.36993 14.1134 9.51222 13.7069 9.51222ZM10.292 15.854C9.18629 15.854 8.18218 15.541 7.27969 14.9149C6.3772 14.2889 5.7227 13.4636 5.31617 12.4392H15.2679C14.8614 13.4636 14.2069 14.2889 13.3044 14.9149C12.4019 15.541 11.3978 15.854 10.292 15.854Z" fill="white"/>
</g>
</svg>
