<svg width="38" height="38" viewBox="0 0 38 38" fill="none" xmlns="http://www.w3.org/2000/svg">
<g clip-path="url(#clip0_0_2263)">
<path d="M37.43 23.5966C34.8923 33.7752 24.583 39.9698 14.4032 37.4315C4.22749 34.8939 -1.9671 24.584 0.571772 14.4059C3.10827 4.22607 13.4176 -1.96912 23.5944 0.568573C33.7737 3.10626 39.9677 13.4173 37.43 23.5966Z" fill="white"/>
<g clip-path="url(#clip1_0_2263)">
<path d="M18.9977 5L18.801 5.63808V24.1521L18.9977 24.3395L27.9948 19.2596L18.9977 5Z" fill="#343434"/>
<path d="M18.9976 5L10.0002 19.2596L18.9976 24.3395V15.3533V5Z" fill="#8C8C8C"/>
<path d="M18.9976 25.9659L18.8867 26.095V32.69L18.9976 32.9991L28.0002 20.8887L18.9976 25.9659Z" fill="#3C3C3B"/>
<path d="M18.9976 32.9991V25.9659L10.0002 20.8887L18.9976 32.9991Z" fill="#8C8C8C"/>
<path d="M18.9976 24.3397L27.9947 19.2598L18.9976 15.3535V24.3397Z" fill="#141414"/>
<path d="M10.0002 19.2598L18.9976 24.3397V15.3535L10.0002 19.2598Z" fill="#393939"/>
</g>
</g>
<defs>
<clipPath id="clip0_0_2263">
<rect width="38" height="38" fill="white"/>
</clipPath>
<clipPath id="clip1_0_2263">
<rect width="18" height="28" fill="white" transform="translate(10.0002 5)"/>
</clipPath>
</defs>
</svg>
