<svg width="20" height="20" viewBox="0 0 20 20" fill="none" xmlns="http://www.w3.org/2000/svg">
<path d="M3.33317 3.3335L16.6665 16.6668M11.6665 11.8636C11.2242 12.2595 10.6401 12.5002 9.99984 12.5002C8.61913 12.5002 7.49984 11.3809 7.49984 10.0002C7.49984 9.35987 7.74055 8.77579 8.13642 8.3335M16.3396 13.0066C16.8158 12.592 17.2417 12.1751 17.6084 11.7892C18.5748 10.7725 18.5748 9.22781 17.6084 8.21108C15.9786 6.49627 13.1794 4.16683 9.99984 4.16683C9.25703 4.16683 8.53498 4.29396 7.84375 4.5107M5.4165 5.66965C4.20103 6.44553 3.16453 7.39748 2.39126 8.21108C1.42492 9.2278 1.42492 10.7725 2.39126 11.7892C4.02108 13.5041 6.82024 15.8335 9.99984 15.8335C11.5566 15.8335 13.0221 15.2751 14.3039 14.5039" stroke="white" stroke-width="1.2" stroke-linecap="round"/>
</svg>
