<svg width="38" height="38" viewBox="0 0 38 38" fill="none" xmlns="http://www.w3.org/2000/svg">
<rect width="38" height="38" rx="8.18966" fill="#91D680"/>
<circle cx="15.5" cy="13.9999" r="4" fill="white"/>
<path d="M24.6622 20.8376C19.6459 20.8376 18.1306 23.7115 18 25.1485C18.3919 25.8016 19.9595 27.4998 24.6622 27.4998C29.0625 27.4998 30.9324 26.0629 31.3243 25.1485C31.1937 23.7115 29.6784 20.8376 24.6622 20.8376Z" fill="white"/>
<path d="M16.5 19.9999C10.1 19.9999 8.16667 23.6665 8 25.4999C8.5 26.3332 10.5 28.4999 16.5 28.4999C22.1143 28.4999 24.5 26.6665 25 25.4999C24.8333 23.6665 22.9 19.9999 16.5 19.9999Z" fill="#91D680"/>
<path d="M15.5 19.9999C9.1 19.9999 7.16667 23.6665 7 25.4999C7.5 26.3332 9.5 28.4999 15.5 28.4999C21.1143 28.4999 23.5 26.6665 24 25.4999C23.8333 23.6665 21.9 19.9999 15.5 19.9999Z" fill="white"/>
<circle cx="24.662" cy="16.135" r="3.13514" fill="white"/>
</svg>
