<svg width="30" height="30" viewBox="0 0 30 30" fill="none" xmlns="http://www.w3.org/2000/svg">
<rect width="30" height="30" rx="6" fill="#00C61A"/>
<circle cx="11.9892" cy="10.0727" r="3.42818" fill="white"/>
<path d="M19.8421 15.9326C15.543 15.9326 14.2443 18.3957 14.1323 19.6272C14.4682 20.187 15.8117 21.6424 19.8421 21.6424C23.6134 21.6424 25.216 20.4109 25.5519 19.6272C25.4399 18.3957 24.1412 15.9326 19.8421 15.9326Z" fill="white"/>
<path d="M12.8464 15.2148C7.36132 15.2148 5.70436 18.3573 5.56152 19.9286C5.99005 20.6428 7.70413 22.4997 12.8464 22.4997C17.6581 22.4997 19.7028 20.9285 20.1313 19.9286C19.9884 18.3573 18.3315 15.2148 12.8464 15.2148Z" fill="#00C61A"/>
<path d="M11.989 15.2148C6.50389 15.2148 4.84694 18.3573 4.7041 19.9286C5.13262 20.6428 6.84671 22.4997 11.989 22.4997C16.8007 22.4997 18.8453 20.9285 19.2739 19.9286C19.131 18.3573 17.4741 15.2148 11.989 15.2148Z" fill="white"/>
<ellipse cx="19.8412" cy="11.9028" rx="2.68695" ry="2.68695" fill="white"/>
</svg>
