<svg width="24" height="25" viewBox="0 0 24 25" fill="none" xmlns="http://www.w3.org/2000/svg">
<rect y="0.5" width="24" height="24" rx="5.17241" fill="#A954DC"/>
<path d="M12 19C11.1117 19 10.2721 18.8294 9.48125 18.4881C8.69042 18.1469 7.99979 17.681 7.40937 17.0906C6.81896 16.5002 6.35313 15.8096 6.01187 15.0187C5.67062 14.2279 5.5 13.3883 5.5 12.5C5.5 11.6008 5.67062 10.7585 6.01187 9.97312C6.35313 9.18771 6.81896 8.49979 7.40937 7.90937C7.99979 7.31896 8.69042 6.85313 9.48125 6.51187C10.2721 6.17062 11.1117 6 12 6C12.8992 6 13.7415 6.17062 14.5269 6.51187C15.3123 6.85313 16.0002 7.31896 16.5906 7.90937C17.181 8.49979 17.6469 9.18771 17.9881 9.97312C18.3294 10.7585 18.5 11.6008 18.5 12.5C18.5 13.3883 18.3294 14.2279 17.9881 15.0187C17.6469 15.8096 17.181 16.5002 16.5906 17.0906C16.0002 17.681 15.3123 18.1469 14.5269 18.4881C13.7415 18.8294 12.8992 19 12 19ZM12 17.6675C12.2817 17.2775 12.5254 16.8713 12.7312 16.4488C12.9371 16.0262 13.105 15.5767 13.235 15.1H10.765C10.895 15.5767 11.0629 16.0262 11.2687 16.4488C11.4746 16.8713 11.7183 17.2775 12 17.6675ZM10.31 17.4075C10.115 17.05 9.94438 16.679 9.79812 16.2944C9.65188 15.9098 9.53 15.5117 9.4325 15.1H7.515C7.82917 15.6417 8.22187 16.1129 8.69312 16.5138C9.16437 16.9146 9.70333 17.2125 10.31 17.4075ZM13.69 17.4075C14.2967 17.2125 14.8356 16.9146 15.3069 16.5138C15.7781 16.1129 16.1708 15.6417 16.485 15.1H14.5675C14.47 15.5117 14.3481 15.9098 14.2019 16.2944C14.0556 16.679 13.885 17.05 13.69 17.4075ZM6.9625 13.8H9.1725C9.14 13.5833 9.11562 13.3694 9.09937 13.1581C9.08312 12.9469 9.075 12.7275 9.075 12.5C9.075 12.2725 9.08312 12.0531 9.09937 11.8419C9.11562 11.6306 9.14 11.4167 9.1725 11.2H6.9625C6.90833 11.4167 6.86771 11.6306 6.84062 11.8419C6.81354 12.0531 6.8 12.2725 6.8 12.5C6.8 12.7275 6.81354 12.9469 6.84062 13.1581C6.86771 13.3694 6.90833 13.5833 6.9625 13.8ZM10.4725 13.8H13.5275C13.56 13.5833 13.5844 13.3694 13.6006 13.1581C13.6169 12.9469 13.625 12.7275 13.625 12.5C13.625 12.2725 13.6169 12.0531 13.6006 11.8419C13.5844 11.6306 13.56 11.4167 13.5275 11.2H10.4725C10.44 11.4167 10.4156 11.6306 10.3994 11.8419C10.3831 12.0531 10.375 12.2725 10.375 12.5C10.375 12.7275 10.3831 12.9469 10.3994 13.1581C10.4156 13.3694 10.44 13.5833 10.4725 13.8ZM14.8275 13.8H17.0375C17.0917 13.5833 17.1323 13.3694 17.1594 13.1581C17.1865 12.9469 17.2 12.7275 17.2 12.5C17.2 12.2725 17.1865 12.0531 17.1594 11.8419C17.1323 11.6306 17.0917 11.4167 17.0375 11.2H14.8275C14.86 11.4167 14.8844 11.6306 14.9006 11.8419C14.9169 12.0531 14.925 12.2725 14.925 12.5C14.925 12.7275 14.9169 12.9469 14.9006 13.1581C14.8844 13.3694 14.86 13.5833 14.8275 13.8ZM14.5675 9.9H16.485C16.1708 9.35833 15.7781 8.88708 15.3069 8.48625C14.8356 8.08542 14.2967 7.7875 13.69 7.5925C13.885 7.95 14.0556 8.32104 14.2019 8.70562C14.3481 9.09021 14.47 9.48833 14.5675 9.9ZM10.765 9.9H13.235C13.105 9.42333 12.9371 8.97375 12.7312 8.55125C12.5254 8.12875 12.2817 7.7225 12 7.3325C11.7183 7.7225 11.4746 8.12875 11.2687 8.55125C11.0629 8.97375 10.895 9.42333 10.765 9.9ZM7.515 9.9H9.4325C9.53 9.48833 9.65188 9.09021 9.79812 8.70562C9.94438 8.32104 10.115 7.95 10.31 7.5925C9.70333 7.7875 9.16437 8.08542 8.69312 8.48625C8.22187 8.88708 7.82917 9.35833 7.515 9.9Z" fill="white"/>
</svg>
