<svg width="24" height="25" viewBox="0 0 24 25" fill="none" xmlns="http://www.w3.org/2000/svg">
<rect y="0.5" width="24" height="24" rx="6" fill="#F64E2A"/>
<path d="M14.1474 18.75C14.3421 18.75 14.4998 18.9078 14.5 19.1025C14.5 19.1448 14.4924 19.1874 14.4765 19.2266C14.0953 20.1661 13.1302 20.833 12 20.833C10.8697 20.8329 9.90459 20.1661 9.52339 19.2266C9.5075 19.1874 9.49995 19.1448 9.49995 19.1025C9.50006 18.9079 9.65791 18.7502 9.85249 18.75H14.1474ZM4.09859 4.55762C4.34258 4.31383 4.73833 4.3139 4.98237 4.55762L19.9824 19.5576C20.2264 19.8017 20.2264 20.1983 19.9824 20.4424C19.7383 20.6861 19.3426 20.6862 19.0986 20.4424L16.1572 17.5H7.1855C5.66199 17.4998 4.79284 15.9675 5.70698 14.8936C6.11162 14.4181 6.36058 13.854 6.42769 13.2627L6.80073 9.97949C6.85746 9.47964 7.00297 9.00481 7.22359 8.56738L4.09859 5.44238C3.85451 5.19831 3.85451 4.80169 4.09859 4.55762ZM12 4.16699C13.0447 4.16699 13.8916 5.01388 13.8916 6.05859V6.14453C15.6769 6.75581 16.9992 8.20903 17.2001 9.97949L17.5722 13.2627C17.6393 13.8541 17.8892 14.4181 18.2939 14.8936C18.5319 15.1733 18.649 15.4843 18.665 15.791L9.34566 6.47168C9.58831 6.3454 9.84307 6.23536 10.1084 6.14453V6.05859C10.1084 5.01391 10.9553 4.16705 12 4.16699Z" fill="white"/>
</svg>
