<svg width="38" height="38" viewBox="0 0 38 38" fill="none" xmlns="http://www.w3.org/2000/svg">
<rect width="38" height="38" rx="8.18966" fill="#FE7763"/>
<path d="M12.9249 25.725C12.414 25.725 11.9999 25.3109 11.9999 24.8C11.9999 24.2891 12.414 23.875 12.9249 23.875C13.4357 23.875 13.8499 23.4609 13.8499 22.95V17.4C13.8499 16.1204 14.2353 14.9834 15.0061 13.9891C15.6438 13.1665 16.4397 12.5787 17.3938 12.2255C17.7507 12.0935 18.0124 11.768 18.0124 11.3875C18.0124 11.0021 18.1473 10.6745 18.4171 10.4047C18.6869 10.1349 19.0145 10 19.3999 10C19.7853 10 20.1129 10.1349 20.3827 10.4047C20.6525 10.6745 20.7874 11.0021 20.7874 11.3875C20.7874 11.768 21.0491 12.0935 21.406 12.2255C22.3601 12.5787 23.156 13.1665 23.7936 13.9891C24.5645 14.9834 24.9499 16.1204 24.9499 17.4V22.95C24.9499 23.4609 25.364 23.875 25.8749 23.875C26.3857 23.875 26.7999 24.2891 26.7999 24.8C26.7999 25.3109 26.3857 25.725 25.8749 25.725H12.9249ZM19.3999 28.5C18.8911 28.5 18.4556 28.3189 18.0933 27.9566C17.982 27.8453 17.8878 27.727 17.8107 27.6019C17.5209 27.1317 17.9976 26.65 18.5499 26.65H20.2499C20.8022 26.65 21.2788 27.1317 20.9891 27.6019C20.912 27.727 20.8178 27.8453 20.7064 27.9566C20.3441 28.3189 19.9086 28.5 19.3999 28.5Z" fill="white"/>
<path d="M12 11L27 28" stroke="#FE7763" stroke-linecap="round"/>
<path d="M13 11L28 28" stroke="white" stroke-linecap="round"/>
</svg>
