<svg width="14" height="15" viewBox="0 0 14 15" fill="none" xmlns="http://www.w3.org/2000/svg">
<path fill-rule="evenodd" clip-rule="evenodd" d="M9.82856 9.77473C11.4477 7.61911 11.2845 4.53138 9.33896 2.56367C7.21528 0.415788 3.77211 0.415788 1.64843 2.56367C-0.475256 4.71156 -0.475256 8.19396 1.64843 10.3418C3.59421 12.3098 6.64767 12.4747 8.77903 10.8364L12.6787 14.7803L12.7546 14.8474C13.0453 15.0712 13.4619 15.0488 13.7274 14.7803C14.017 14.4874 14.017 14.0125 13.7274 13.7196L9.82856 9.77473ZM2.34756 3.27078C4.08512 1.51342 6.90226 1.51342 8.63982 3.27078C10.3774 5.02814 10.3774 7.87738 8.63982 9.63474C6.90226 11.3921 4.08512 11.3921 2.34756 9.63474C0.610007 7.87738 0.610007 5.02814 2.34756 3.27078Z" fill="white" fill-opacity="0.65"/>
</svg>
