<svg width="38" height="38" viewBox="0 0 38 38" fill="none" xmlns="http://www.w3.org/2000/svg">
<rect width="38" height="38" rx="8.18966" fill="#FFC367"/>
<circle cx="19.5" cy="14" r="4" fill="white"/>
<path d="M27.595 25.5C27.4283 23.6667 25.495 20 19.095 20C16.4404 20 15.2475 20.6308 13.9372 21.4999C13.9372 22.6647 13.9372 23.4999 13.4372 23.9999C13.1314 24.6026 11.5293 25.5408 11.4876 25.9999C11.4765 25.9999 11.3005 26.2858 11.5 26.4999C11.7991 26.821 11.759 26.7475 12.3857 27.1029C13.6799 27.8367 15.7751 28.5 19.095 28.5C24.7092 28.5 27.095 26.6667 27.595 25.5Z" fill="white"/>
<path d="M10.233 26.5455V26.4943C10.2386 25.9517 10.2955 25.5199 10.4034 25.1989C10.5114 24.8778 10.6648 24.6179 10.8636 24.419C11.0625 24.2202 11.3011 24.0369 11.5795 23.8693C11.7472 23.767 11.8977 23.6463 12.0312 23.5071C12.1648 23.3651 12.2699 23.2017 12.3466 23.017C12.4261 22.8324 12.4659 22.6278 12.4659 22.4034C12.4659 22.125 12.4006 21.8835 12.2699 21.679C12.1392 21.4744 11.9645 21.3168 11.7457 21.206C11.527 21.0952 11.2841 21.0398 11.017 21.0398C10.7841 21.0398 10.5597 21.0881 10.3438 21.1847C10.1278 21.2812 9.94744 21.4332 9.80256 21.6406C9.65767 21.848 9.57386 22.1193 9.55114 22.4545H8.47727C8.5 21.9716 8.625 21.5582 8.85227 21.2145C9.08239 20.8707 9.38494 20.608 9.75994 20.4261C10.1378 20.2443 10.5568 20.1534 11.017 20.1534C11.517 20.1534 11.9517 20.2528 12.321 20.4517C12.6932 20.6506 12.9801 20.9233 13.1818 21.2699C13.3864 21.6165 13.4886 22.0114 13.4886 22.4545C13.4886 22.767 13.4403 23.0497 13.3438 23.3026C13.25 23.5554 13.1136 23.7812 12.9347 23.9801C12.7585 24.179 12.5455 24.3551 12.2955 24.5085C12.0455 24.6648 11.8452 24.8295 11.6946 25.0028C11.544 25.1733 11.4347 25.3764 11.3665 25.6122C11.2983 25.848 11.2614 26.142 11.2557 26.4943V26.5455H10.233ZM10.7784 29.0682C10.5682 29.0682 10.3878 28.9929 10.2372 28.8423C10.0866 28.6918 10.0114 28.5114 10.0114 28.3011C10.0114 28.0909 10.0866 27.9105 10.2372 27.7599C10.3878 27.6094 10.5682 27.5341 10.7784 27.5341C10.9886 27.5341 11.169 27.6094 11.3196 27.7599C11.4702 27.9105 11.5455 28.0909 11.5455 28.3011C11.5455 28.4403 11.5099 28.5682 11.4389 28.6847C11.3707 28.8011 11.2784 28.8949 11.1619 28.9659C11.0483 29.0341 10.9205 29.0682 10.7784 29.0682Z" fill="white"/>
</svg>
