<svg width="24" height="25" viewBox="0 0 24 25" fill="none" xmlns="http://www.w3.org/2000/svg">
<rect y="0.5" width="24" height="24" rx="4.75862" fill="#FF3B30"/>
<path fill-rule="evenodd" clip-rule="evenodd" d="M13.2412 6.2931V7.53448H8.27568C7.13302 7.53448 6.20671 8.46079 6.20671 9.60345V16.2241C6.20671 17.3668 7.13302 18.2931 8.27568 18.2931H14.8964C16.039 18.2931 16.9653 17.3668 16.9653 16.2241V11.2586H18.2067V16.2241C18.2067 18.0524 16.7246 19.5345 14.8964 19.5345H8.27568C6.44742 19.5345 4.96533 18.0524 4.96533 16.2241V9.60345C4.96533 7.7752 6.44742 6.2931 8.27568 6.2931H13.2412ZM17.3791 3.81034C19.2074 3.81034 20.6895 5.29244 20.6895 7.12069C20.6895 8.94894 19.2074 10.431 17.3791 10.431C15.5509 10.431 14.0688 8.94894 14.0688 7.12069C14.0688 5.29244 15.5509 3.81034 17.3791 3.81034Z" fill="white"/>
</svg>
