<svg width="23" height="24" viewBox="0 0 23 24" fill="none" xmlns="http://www.w3.org/2000/svg">
<mask id="mask0_4008_12566" style="mask-type:alpha" maskUnits="userSpaceOnUse" x="0" y="0" width="23" height="24">
<rect y="0.5" width="22.9996" height="22.9997" fill="#D9D9D9"/>
</mask>
<g mask="url(#mask0_4008_12566)">
<path d="M4.00094 20.6252C3.66553 20.7051 3.37404 20.6213 3.12648 20.3737C2.87891 20.1261 2.79506 19.8346 2.87492 19.4992L3.83324 14.9232L8.57692 19.6669L4.00094 20.6252ZM8.57692 19.6669L3.83324 14.9232L14.806 3.95045C15.1733 3.58309 15.6285 3.39941 16.1716 3.39941C16.7146 3.39941 17.1698 3.58309 17.5372 3.95045L19.5497 5.96292C19.917 6.33028 20.1007 6.78548 20.1007 7.32853C20.1007 7.87158 19.917 8.32679 19.5497 8.69414L8.57692 19.6669ZM16.1716 5.2921L6.25299 15.2107L8.28942 17.2472L18.208 7.32853L16.1716 5.2921Z" fill="#F64E2A"/>
</g>
</svg>
