<svg width="24" height="25" viewBox="0 0 24 25" fill="none" xmlns="http://www.w3.org/2000/svg">
<rect y="0.5" width="24" height="24" rx="6" fill="#1E94F8"/>
<path fill-rule="evenodd" clip-rule="evenodd" d="M13.9549 5.46552C16.6973 5.46552 18.9205 7.68865 18.9205 10.431C18.9205 13.1734 16.6973 15.3965 13.9549 15.3965C13.2917 15.3965 12.6588 15.2665 12.0804 15.0305L11.2087 15.9022H9.64612V17.2764H8.23817V18.6168L7.66898 19.186H4.96558V16.6306L9.33684 12.2593C9.11265 11.6935 8.98943 11.0766 8.98943 10.431C8.98943 7.68865 11.2126 5.46552 13.9549 5.46552ZM15.155 7.36894C14.1266 7.36894 13.2929 8.20262 13.2929 9.23101C13.2929 10.2594 14.1266 11.0931 15.155 11.0931C16.1834 11.0931 17.0171 10.2594 17.0171 9.23101C17.0171 8.20262 16.1834 7.36894 15.155 7.36894Z" fill="white"/>
</svg>
