<svg width="24" height="25" viewBox="0 0 24 25" fill="none" xmlns="http://www.w3.org/2000/svg">
<g clip-path="url(#clip0_1015_4699)">
<rect y="0.5" width="24" height="24" rx="5.17241" fill="#F64E2A"/>
<path d="M11.1544 17.5927C11.1441 17.6319 11.1337 17.6711 11.1234 17.7102C11.3172 17.81 11.5061 17.9211 11.706 18.0074C13.1348 18.6233 14.5646 19.2349 15.9961 19.8444C16.1448 19.9077 16.301 19.9645 16.46 19.9908C16.7552 20.0396 16.9615 19.8916 16.9931 19.597C17.0111 19.4329 16.9871 19.258 16.9495 19.0954C16.6615 17.832 16.3544 16.5729 16.0767 15.3073C15.9025 14.5149 16.0941 13.7891 16.6517 13.1914C17.9966 11.7509 19.3601 10.3266 20.7132 8.89363C20.8645 8.73322 21.084 8.55779 20.9669 8.31959C20.8438 8.07012 20.5656 8.15811 20.3511 8.19244C18.2662 8.52399 16.1818 8.86305 14.0985 9.20371C13.9537 9.22732 13.8143 9.28258 13.6722 9.32281C13.6727 9.35339 13.6738 9.38344 13.6744 9.41402C13.8083 9.44513 13.9412 9.48859 14.0767 9.50415C14.698 9.57657 15.3199 9.63934 15.9417 9.70962C16.2128 9.7402 16.521 9.75093 16.6228 10.0557C16.7247 10.3593 16.484 10.5519 16.2885 10.7375C15.5823 11.4065 14.8717 12.0718 14.1633 12.7381C13.5687 13.2976 13.4059 14.0852 13.7359 14.8245C14.0348 15.4951 14.3419 16.1625 14.6381 16.8341C14.9028 17.435 14.5875 17.8674 13.933 17.8052C13.1478 17.7306 12.3632 17.6469 11.5775 17.575C11.4386 17.5622 11.296 17.5858 11.1549 17.5922L11.1544 17.5927ZM8.80323 13.2772C8.84352 13.2687 8.88327 13.2601 8.92357 13.2515C8.94208 13.1061 8.96985 12.9613 8.97747 12.8153C9.01994 12.0133 9.02484 11.2075 9.1087 10.4092C9.1724 9.80458 9.61345 9.53258 10.2211 9.65168C11.1446 9.83301 12.0648 10.0342 12.9883 10.215C13.1369 10.244 13.2987 10.2086 13.4544 10.2032C13.364 10.0723 13.2981 9.91295 13.18 9.81584C12.422 9.19138 11.6521 8.58139 10.8865 7.96551C9.75611 7.05616 8.62899 6.14253 7.49315 5.23909C7.34124 5.11784 7.1463 4.89252 6.95845 5.05937C6.84574 5.15915 6.82777 5.44242 6.87024 5.61946C7.4534 8.05081 8.05345 10.4784 8.65349 12.906C8.68507 13.0342 8.75205 13.1539 8.80269 13.2778L8.80323 13.2772ZM7.94618 13.1667C7.92059 13.1528 7.89554 13.1388 7.86995 13.1254C7.77194 13.2059 7.66413 13.2778 7.57646 13.3684C6.14333 14.8486 4.71237 16.3304 3.28305 17.8138C3.19647 17.9039 3.11371 18.0031 3.05381 18.1115C2.93457 18.3277 3.01679 18.4844 3.2678 18.5015C3.41863 18.5117 3.57436 18.4822 3.72464 18.4533C5.289 18.1528 6.85336 17.8502 8.41718 17.5455C9.39402 17.3551 10.3725 17.1711 11.3433 16.9549C11.511 16.9173 11.7022 16.7617 11.7795 16.6094C11.8835 16.4066 11.7256 16.2145 11.5617 16.0772C11.0569 15.6555 10.5478 15.2397 10.0349 14.8277C9.96084 14.7681 9.85739 14.744 9.69404 14.67C9.73869 14.869 9.75448 14.9902 9.79423 15.1034C9.89442 15.3905 10.0169 15.67 10.1079 15.9591C10.2135 16.295 10.073 16.4801 9.71691 16.4876C9.32704 16.4962 8.93609 16.472 8.54731 16.4951C7.70714 16.5455 7.39133 15.8915 7.53562 15.2757C7.66631 14.7193 7.78719 14.1603 7.90425 13.6007C7.93366 13.4591 7.93311 13.3116 7.94618 13.1667Z" fill="#0A090F"/>
</g>
<defs>
<clipPath id="clip0_1015_4699">
<rect width="24" height="24" fill="white" transform="translate(0 0.5)"/>
</clipPath>
</defs>
</svg>
