<svg width="24" height="25" viewBox="0 0 24 25" fill="none" xmlns="http://www.w3.org/2000/svg">
<rect y="0.5" width="24" height="24" rx="4.75862" fill="#909092"/>
<path fill-rule="evenodd" clip-rule="evenodd" d="M11.9999 5.05172C14.2852 5.05172 16.1378 6.90434 16.1378 9.18965V10.8448C17.0519 10.8448 17.793 11.5859 17.793 12.5V18.2931C17.793 19.2072 17.0519 19.9483 16.1378 19.9483H7.86196C6.94783 19.9483 6.20679 19.2072 6.20679 18.2931V12.5C6.20679 11.5859 6.94783 10.8448 7.86196 10.8448V9.18965C7.86196 6.90434 9.71457 5.05172 11.9999 5.05172ZM12 12.9138C11.3144 12.9138 10.7586 13.4696 10.7586 14.1552C10.7586 14.6542 11.053 15.0844 11.4776 15.2816L11.5864 15.326L11.5866 17.4315C11.5866 17.6346 11.733 17.8036 11.9261 17.8386L12.0005 17.8453C12.2291 17.8452 12.4144 17.6599 12.4144 17.4313L12.4143 15.3257C12.8962 15.1551 13.2413 14.6955 13.2413 14.1552C13.2413 13.4696 12.6856 12.9138 12 12.9138ZM12 6.2931C10.4503 6.2931 9.18478 7.70574 9.1072 9.48216L9.10343 9.65517V10.8448H14.8965V9.65517C14.8965 7.79835 13.5997 6.2931 12 6.2931Z" fill="white"/>
</svg>
