<svg width="30" height="30" viewBox="0 0 30 30" fill="none" xmlns="http://www.w3.org/2000/svg">
<rect width="30" height="30" rx="6" fill="#7873B4"/>
<path fill-rule="evenodd" clip-rule="evenodd" d="M14.9999 7.5C17.3011 7.5 19.1666 9.3655 19.1666 11.6667V13.3334C20.0871 13.3334 20.8333 14.0796 20.8333 15.0001V20.8335C20.8333 21.7539 20.0871 22.5001 19.1666 22.5001H10.8332C9.9127 22.5001 9.1665 21.7539 9.1665 20.8335V15.0001C9.1665 14.0796 9.9127 13.3334 10.8332 13.3334V11.6667C10.8332 9.3655 12.6987 7.5 14.9999 7.5ZM14.9998 15.4166C14.3095 15.4166 13.7498 15.9763 13.7498 16.6666C13.7498 17.1691 14.0463 17.6023 14.4739 17.8009L14.5834 17.8456L14.5836 19.9657C14.5836 20.1703 14.7311 20.3404 14.9254 20.3757L15.0004 20.3824C15.2305 20.3823 15.4171 20.1957 15.4171 19.9656L15.4171 17.8453C15.9023 17.6735 16.2498 17.2107 16.2498 16.6666C16.2498 15.9763 15.6902 15.4166 14.9998 15.4166ZM14.9998 8.74989C13.4393 8.74989 12.1651 10.1724 12.0869 11.9611L12.0832 12.1353V13.3333H17.9165V12.1353C17.9165 10.2656 16.6107 8.74989 14.9998 8.74989Z" fill="white"/>
</svg>
