<svg width="24" height="25" viewBox="0 0 24 25" fill="none" xmlns="http://www.w3.org/2000/svg">
<rect y="0.5" width="24" height="24" rx="6" fill="#0044FF"/>
<path d="M6.86834 17.2569L5.58545 20.6245L11.5723 17.6311L7.29598 14.6377C6.86834 15.0119 7.21045 16.3589 6.86834 17.2569Z" fill="white"/>
<path d="M20.125 11.6447C20.125 15.6597 16.4873 18.9145 12 18.9145C11.5635 18.9145 11.135 18.8837 10.7171 18.8244C9.85969 18.7027 9.04692 18.461 8.30099 18.1191C5.67337 16.9149 3.875 14.4677 3.875 11.6447C3.875 7.62977 7.51269 4.375 12 4.375C16.4873 4.375 20.125 7.62977 20.125 11.6447Z" fill="white"/>
<path d="M8.15137 12.0724L10.1358 14.8506C10.2129 14.9586 10.3719 14.9629 10.4547 14.8593L15.4211 8.65137" stroke="#0044FF" stroke-width="1.5" stroke-linecap="round"/>
</svg>
