<svg width="38" height="38" viewBox="0 0 38 38" fill="none" xmlns="http://www.w3.org/2000/svg">
<rect width="38" height="38" rx="8.18966" fill="#097AF0"/>
<path d="M13.4079 24.666L11.9474 28.4999L18.7632 25.092L13.8948 21.6841C13.4079 22.1101 13.7974 23.6436 13.4079 24.666Z" fill="white"/>
<path d="M28.5 18.2762C28.5 22.8471 24.3586 26.5525 19.25 26.5525C18.753 26.5525 18.2652 26.5174 17.7895 26.4499C16.8133 26.3114 15.888 26.0362 15.0388 25.647C12.0474 24.2761 10 21.4901 10 18.2762C10 13.7053 14.1414 9.99988 19.25 9.99988C24.3586 9.99988 28.5 13.7053 28.5 18.2762Z" fill="white"/>
<path d="M14.8684 18.763L17.1489 21.9557C17.226 22.0637 17.3849 22.068 17.4678 21.9644L23.1447 14.8683" stroke="#097AF0" stroke-width="1.5" stroke-linecap="round"/>
</svg>
