<svg width="48" height="48" viewBox="0 0 48 48" fill="none" xmlns="http://www.w3.org/2000/svg">
<g filter="url(#filter0_f_313_5106)">
<path d="M24.0003 8.16797C15.2603 8.16797 8.16699 15.2613 8.16699 24.0013C8.16699 32.7413 15.2603 39.8346 24.0003 39.8346C32.7403 39.8346 39.8337 32.7413 39.8337 24.0013C39.8337 15.2613 32.7403 8.16797 24.0003 8.16797ZM15.4503 22.7821C15.7195 20.898 16.5587 19.2038 17.8728 17.8738C21.0395 14.723 26.027 14.5488 29.4153 17.3038V15.7996C29.4153 15.1505 29.9537 14.6121 30.6028 14.6121C31.252 14.6121 31.7903 15.1505 31.7903 15.7996V20.0271C31.7903 20.6763 31.252 21.2146 30.6028 21.2146H26.3753C25.7262 21.2146 25.1878 20.6763 25.1878 20.0271C25.1878 19.378 25.7262 18.8396 26.3753 18.8396H27.5628C25.1087 17.1296 21.7203 17.3671 19.5353 19.5521C18.5853 20.5021 17.9837 21.7371 17.7778 23.1146C17.6987 23.7005 17.192 24.128 16.6062 24.128C16.5428 24.128 16.4953 24.128 16.432 24.1121C15.8145 24.033 15.3553 23.4313 15.4503 22.7821ZM30.1278 30.1288C28.4337 31.823 26.217 32.6621 24.0003 32.6621C22.0687 32.6621 20.1528 31.9813 18.5695 30.6988V32.1871C18.5695 32.8363 18.0312 33.3746 17.382 33.3746C16.7328 33.3746 16.1945 32.8363 16.1945 32.1871V27.9596C16.1945 27.3105 16.7328 26.7721 17.382 26.7721H21.6095C22.2587 26.7721 22.797 27.3105 22.797 27.9596C22.797 28.6088 22.2587 29.1471 21.6095 29.1471H20.422C22.8762 30.8571 26.2645 30.6196 28.4495 28.4346C29.3995 27.4846 30.0012 26.2496 30.207 24.8721C30.302 24.223 30.8878 23.7638 31.5528 23.8588C32.202 23.9538 32.6453 24.5555 32.5662 25.2046C32.2812 27.1205 31.442 28.8146 30.1278 30.1288Z" fill="#F64E2A" fill-opacity="0.4"/>
</g>
<path d="M24.0003 8.16797C15.2603 8.16797 8.16699 15.2613 8.16699 24.0013C8.16699 32.7413 15.2603 39.8346 24.0003 39.8346C32.7403 39.8346 39.8337 32.7413 39.8337 24.0013C39.8337 15.2613 32.7403 8.16797 24.0003 8.16797ZM15.4503 22.7821C15.7195 20.898 16.5587 19.2038 17.8728 17.8738C21.0395 14.723 26.027 14.5488 29.4153 17.3038V15.7996C29.4153 15.1505 29.9537 14.6121 30.6028 14.6121C31.252 14.6121 31.7903 15.1505 31.7903 15.7996V20.0271C31.7903 20.6763 31.252 21.2146 30.6028 21.2146H26.3753C25.7262 21.2146 25.1878 20.6763 25.1878 20.0271C25.1878 19.378 25.7262 18.8396 26.3753 18.8396H27.5628C25.1087 17.1296 21.7203 17.3671 19.5353 19.5521C18.5853 20.5021 17.9837 21.7371 17.7778 23.1146C17.6987 23.7005 17.192 24.128 16.6062 24.128C16.5428 24.128 16.4953 24.128 16.432 24.1121C15.8145 24.033 15.3553 23.4313 15.4503 22.7821ZM30.1278 30.1288C28.4337 31.823 26.217 32.6621 24.0003 32.6621C22.0687 32.6621 20.1528 31.9813 18.5695 30.6988V32.1871C18.5695 32.8363 18.0312 33.3746 17.382 33.3746C16.7328 33.3746 16.1945 32.8363 16.1945 32.1871V27.9596C16.1945 27.3105 16.7328 26.7721 17.382 26.7721H21.6095C22.2587 26.7721 22.797 27.3105 22.797 27.9596C22.797 28.6088 22.2587 29.1471 21.6095 29.1471H20.422C22.8762 30.8571 26.2645 30.6196 28.4495 28.4346C29.3995 27.4846 30.0012 26.2496 30.207 24.8721C30.302 24.223 30.8878 23.7638 31.5528 23.8588C32.202 23.9538 32.6453 24.5555 32.5662 25.2046C32.2812 27.1205 31.442 28.8146 30.1278 30.1288Z" fill="#F64E2A"/>
<defs>
<filter id="filter0_f_313_5106" x="0.166992" y="0.167969" width="47.667" height="47.666" filterUnits="userSpaceOnUse" color-interpolation-filters="sRGB">
<feFlood flood-opacity="0" result="BackgroundImageFix"/>
<feBlend mode="normal" in="SourceGraphic" in2="BackgroundImageFix" result="shape"/>
<feGaussianBlur stdDeviation="4" result="effect1_foregroundBlur_313_5106"/>
</filter>
</defs>
</svg>
