<svg width="48" height="48" viewBox="0 0 48 48" fill="none" xmlns="http://www.w3.org/2000/svg">
<g filter="url(#filter0_f_563_5672)">
<path d="M30.634 8.16602H17.3657C11.6023 8.16602 8.1665 11.6018 8.1665 17.3652V30.6177C8.1665 36.3968 11.6023 39.8327 17.3657 39.8327H30.6182C36.3815 39.8327 39.8173 36.3968 39.8173 30.6335V17.3652C39.8332 11.6018 36.3973 8.16602 30.634 8.16602ZM32.7557 21.181L30.2698 23.6668C30.0323 23.9043 29.7315 24.0152 29.4307 24.0152C29.1298 24.0152 28.829 23.9043 28.5915 23.6668C28.1323 23.2077 28.1323 22.4477 28.5915 21.9885L29.0032 21.5768H20.9598C18.9332 21.5768 17.2707 23.2235 17.2707 25.266C17.2707 27.3085 18.9173 28.9552 20.9598 28.9552H28.7498C29.399 28.9552 29.9373 29.4935 29.9373 30.1427C29.9373 30.7918 29.399 31.3302 28.7498 31.3302H20.9598C17.619 31.3302 14.8957 28.6068 14.8957 25.266C14.8957 21.9252 17.619 19.2018 20.9598 19.2018H29.114L28.5915 18.6952C28.1323 18.236 28.1323 17.476 28.5915 17.0168C29.0507 16.5577 29.8107 16.5577 30.2698 17.0168L32.7557 19.5027C33.2148 19.9777 33.2148 20.7218 32.7557 21.181Z" fill="#F64E2A" fill-opacity="0.4"/>
</g>
<path d="M30.634 8.16602H17.3657C11.6023 8.16602 8.1665 11.6018 8.1665 17.3652V30.6177C8.1665 36.3968 11.6023 39.8327 17.3657 39.8327H30.6182C36.3815 39.8327 39.8173 36.3968 39.8173 30.6335V17.3652C39.8332 11.6018 36.3973 8.16602 30.634 8.16602ZM32.7557 21.181L30.2698 23.6668C30.0323 23.9043 29.7315 24.0152 29.4307 24.0152C29.1298 24.0152 28.829 23.9043 28.5915 23.6668C28.1323 23.2077 28.1323 22.4477 28.5915 21.9885L29.0032 21.5768H20.9598C18.9332 21.5768 17.2707 23.2235 17.2707 25.266C17.2707 27.3085 18.9173 28.9552 20.9598 28.9552H28.7498C29.399 28.9552 29.9373 29.4935 29.9373 30.1427C29.9373 30.7918 29.399 31.3302 28.7498 31.3302H20.9598C17.619 31.3302 14.8957 28.6068 14.8957 25.266C14.8957 21.9252 17.619 19.2018 20.9598 19.2018H29.114L28.5915 18.6952C28.1323 18.236 28.1323 17.476 28.5915 17.0168C29.0507 16.5577 29.8107 16.5577 30.2698 17.0168L32.7557 19.5027C33.2148 19.9777 33.2148 20.7218 32.7557 21.181Z" fill="#F64E2A"/>
<defs>
<filter id="filter0_f_563_5672" x="0.166504" y="0.166016" width="47.6509" height="47.666" filterUnits="userSpaceOnUse" color-interpolation-filters="sRGB">
<feFlood flood-opacity="0" result="BackgroundImageFix"/>
<feBlend mode="normal" in="SourceGraphic" in2="BackgroundImageFix" result="shape"/>
<feGaussianBlur stdDeviation="4" result="effect1_foregroundBlur_563_5672"/>
</filter>
</defs>
</svg>
