<svg width="48" height="48" viewBox="0 0 48 48" fill="none" xmlns="http://www.w3.org/2000/svg">
<g filter="url(#filter0_f_563_5836)">
<path d="M17.366 8.16602H30.6343C36.3977 8.16602 39.8335 11.6018 39.8335 17.3652V30.6177C39.8335 36.3968 36.3977 39.8327 30.6343 39.8327H17.3818C11.6185 39.8327 8.18266 36.3968 8.18266 30.6335V17.3652C8.16683 11.6018 11.6027 8.16602 17.366 8.16602ZM15.2443 21.181L17.7302 23.6668C17.9677 23.9043 18.2685 24.0152 18.5693 24.0152C18.8702 24.0152 19.171 23.9043 19.4085 23.6668C19.8677 23.2077 19.8677 22.4477 19.4085 21.9885L18.9968 21.5768H27.0402C29.0668 21.5768 30.7293 23.2235 30.7293 25.266C30.7293 27.3085 29.0827 28.9552 27.0402 28.9552H19.2502C18.601 28.9552 18.0627 29.4935 18.0627 30.1427C18.0627 30.7918 18.601 31.3302 19.2502 31.3302H27.0402C30.381 31.3302 33.1043 28.6068 33.1043 25.266C33.1043 21.9252 30.381 19.2018 27.0402 19.2018H18.886L19.4085 18.6952C19.8677 18.236 19.8677 17.476 19.4085 17.0168C18.9493 16.5577 18.1893 16.5577 17.7302 17.0168L15.2443 19.5027C14.7852 19.9777 14.7852 20.7218 15.2443 21.181Z" fill="#F64E2A" fill-opacity="0.4"/>
</g>
<path d="M17.366 8.16602H30.6343C36.3977 8.16602 39.8335 11.6018 39.8335 17.3652V30.6177C39.8335 36.3968 36.3977 39.8327 30.6343 39.8327H17.3818C11.6185 39.8327 8.18266 36.3968 8.18266 30.6335V17.3652C8.16683 11.6018 11.6027 8.16602 17.366 8.16602ZM15.2443 21.181L17.7302 23.6668C17.9677 23.9043 18.2685 24.0152 18.5693 24.0152C18.8702 24.0152 19.171 23.9043 19.4085 23.6668C19.8677 23.2077 19.8677 22.4477 19.4085 21.9885L18.9968 21.5768H27.0402C29.0668 21.5768 30.7293 23.2235 30.7293 25.266C30.7293 27.3085 29.0827 28.9552 27.0402 28.9552H19.2502C18.601 28.9552 18.0627 29.4935 18.0627 30.1427C18.0627 30.7918 18.601 31.3302 19.2502 31.3302H27.0402C30.381 31.3302 33.1043 28.6068 33.1043 25.266C33.1043 21.9252 30.381 19.2018 27.0402 19.2018H18.886L19.4085 18.6952C19.8677 18.236 19.8677 17.476 19.4085 17.0168C18.9493 16.5577 18.1893 16.5577 17.7302 17.0168L15.2443 19.5027C14.7852 19.9777 14.7852 20.7218 15.2443 21.181Z" fill="#F64E2A"/>
<defs>
<filter id="filter0_f_563_5836" x="0.182617" y="0.166016" width="47.6509" height="47.666" filterUnits="userSpaceOnUse" color-interpolation-filters="sRGB">
<feFlood flood-opacity="0" result="BackgroundImageFix"/>
<feBlend mode="normal" in="SourceGraphic" in2="BackgroundImageFix" result="shape"/>
<feGaussianBlur stdDeviation="4" result="effect1_foregroundBlur_563_5836"/>
</filter>
</defs>
</svg>
