<svg width="14" height="14" viewBox="0 0 14 14" fill="none" xmlns="http://www.w3.org/2000/svg">
<path d="M7 1.16602V10.4993M7 12.8327V10.4993M7 10.4993L8.75 12.2493M7 10.4993L5.25 12.2493M8.75 1.74935L7 3.49935L5.25 1.74935" stroke="white" stroke-linecap="round"/>
<path d="M1.94794 4.08325L3.96867 5.24992M3.96867 5.24992L10.0308 8.74992M3.96867 5.24992L3.32812 2.85938M3.96867 5.24992L1.57812 5.89046M10.0308 8.74992L12.0516 9.91659M10.0308 8.74992L12.4214 8.10937M10.0308 8.74992L10.6714 11.1405" stroke="white" stroke-linecap="round"/>
<path d="M12.0516 4.08325L10.0308 5.24992M10.0308 5.24992L3.96867 8.74992M10.0308 5.24992L10.6714 2.85938M10.0308 5.24992L12.4214 5.89046M3.96867 8.74992L1.94794 9.91659M3.96867 8.74992L1.57812 8.10937M3.96867 8.74992L3.32812 11.1405" stroke="white" stroke-linecap="round"/>
</svg>
