<svg width="25" height="21" viewBox="0 0 25 21" fill="none" xmlns="http://www.w3.org/2000/svg">
<g clip-path="url(#clip0_0_6609)">
<path fill-rule="evenodd" clip-rule="evenodd" d="M4.89403 0.10314L0.517991 9.34892C0.501339 9.3833 0.496062 9.42215 0.502932 9.45977C0.509802 9.4974 0.528458 9.53182 0.556173 9.55801L12.3748 20.9495C12.4084 20.9819 12.4531 21 12.4996 21C12.5461 21 12.5908 20.9819 12.6244 20.9495L24.443 9.55872C24.4708 9.53253 24.4894 9.49811 24.4963 9.46048C24.5032 9.42286 24.4979 9.38402 24.4812 9.34963L20.1052 0.103851C20.0911 0.0727997 20.0683 0.0464954 20.0398 0.0280817C20.0112 0.00966799 19.9779 -7.61701e-05 19.944 1.37637e-05H5.05666C5.02255 -0.00041308 4.98905 0.00909636 4.96019 0.027395C4.93133 0.0456935 4.90836 0.0719996 4.89403 0.10314Z" fill="#50AF95"/>
<path fill-rule="evenodd" clip-rule="evenodd" d="M14.0167 10.2985C13.9318 10.3049 13.4934 10.3312 12.5156 10.3312C11.7378 10.3312 11.1856 10.3077 10.9918 10.2985C7.98609 10.1655 5.74256 9.63919 5.74256 9.00906C5.74256 8.37892 7.98609 7.85334 10.9918 7.7182V9.77432C11.1884 9.78855 11.7512 9.82198 12.529 9.82198C13.4623 9.82198 13.9297 9.78286 14.0138 9.77503V7.71963C17.0132 7.85405 19.2518 8.38034 19.2518 9.00906C19.2518 9.63777 17.0139 10.1641 14.0138 10.2978L14.0167 10.2985ZM14.0167 7.50698V5.66707H18.2025V2.86133H6.80599V5.66707H10.9911V7.50626C7.58942 7.66344 5.03125 8.34123 5.03125 9.15343C5.03125 9.96564 7.58942 10.6427 10.9911 10.8006V16.6966H14.016V10.7985C17.4099 10.6413 19.9638 9.96422 19.9638 9.15272C19.9638 8.34123 17.412 7.66415 14.016 7.50626L14.0167 7.50698Z" fill="white"/>
</g>
<defs>
<clipPath id="clip0_0_6609">
<rect width="24" height="21" fill="white" transform="translate(0.5)"/>
</clipPath>
</defs>
</svg>
