<svg width="48" height="48" viewBox="0 0 48 48" fill="none" xmlns="http://www.w3.org/2000/svg">
<g filter="url(#filter0_f_313_5094)">
<path d="M24.0003 8.16797C15.2762 8.16797 8.16699 15.2771 8.16699 24.0013C8.16699 32.7255 15.2762 39.8346 24.0003 39.8346C32.7245 39.8346 39.8337 32.7255 39.8337 24.0013C39.8337 15.2771 32.7245 8.16797 24.0003 8.16797ZM31.5687 20.3596L22.5912 29.3371C22.3695 29.5588 22.0687 29.6855 21.752 29.6855C21.4353 29.6855 21.1345 29.5588 20.9128 29.3371L16.432 24.8563C15.9728 24.3971 15.9728 23.6371 16.432 23.178C16.8912 22.7188 17.6512 22.7188 18.1103 23.178L21.752 26.8196L29.8903 18.6813C30.3495 18.2221 31.1095 18.2221 31.5687 18.6813C32.0278 19.1405 32.0278 19.8846 31.5687 20.3596Z" fill="#F64E2A" fill-opacity="0.4"/>
</g>
<path d="M24.0003 8.16797C15.2762 8.16797 8.16699 15.2771 8.16699 24.0013C8.16699 32.7255 15.2762 39.8346 24.0003 39.8346C32.7245 39.8346 39.8337 32.7255 39.8337 24.0013C39.8337 15.2771 32.7245 8.16797 24.0003 8.16797ZM31.5687 20.3596L22.5912 29.3371C22.3695 29.5588 22.0687 29.6855 21.752 29.6855C21.4353 29.6855 21.1345 29.5588 20.9128 29.3371L16.432 24.8563C15.9728 24.3971 15.9728 23.6371 16.432 23.178C16.8912 22.7188 17.6512 22.7188 18.1103 23.178L21.752 26.8196L29.8903 18.6813C30.3495 18.2221 31.1095 18.2221 31.5687 18.6813C32.0278 19.1405 32.0278 19.8846 31.5687 20.3596Z" fill="#F64E2A"/>
<defs>
<filter id="filter0_f_313_5094" x="0.166992" y="0.167969" width="47.667" height="47.666" filterUnits="userSpaceOnUse" color-interpolation-filters="sRGB">
<feFlood flood-opacity="0" result="BackgroundImageFix"/>
<feBlend mode="normal" in="SourceGraphic" in2="BackgroundImageFix" result="shape"/>
<feGaussianBlur stdDeviation="4" result="effect1_foregroundBlur_313_5094"/>
</filter>
</defs>
</svg>
