<svg width="38" height="38" viewBox="0 0 38 38" fill="none" xmlns="http://www.w3.org/2000/svg">
<path d="M19 38C29.4934 38 38 29.4934 38 19C38 8.50657 29.4934 0 19 0C8.50657 0 0 8.50657 0 19C0 29.4934 8.50657 38 19 38Z" fill="#0098EA"/>
<path d="M25.4872 10.6055H12.5118C10.1261 10.6055 8.614 13.179 9.81419 15.2594L17.8222 29.1394C18.3447 30.0457 19.6543 30.0457 20.1769 29.1394L28.1864 15.2594C29.3851 13.1823 27.8729 10.6055 25.4889 10.6055H25.4872ZM17.8156 24.977L16.0716 21.6017L11.8635 14.0755C11.5859 13.5938 11.9288 12.9765 12.5102 12.9765H17.814V24.9786L17.8156 24.977ZM26.1322 14.0739L21.9257 21.6033L20.1817 24.977V12.9748H25.4856C26.0669 12.9748 26.4098 13.5921 26.1322 14.0739Z" fill="white"/>
</svg>
