<svg width="22" height="22" viewBox="0 0 22 22" fill="none" xmlns="http://www.w3.org/2000/svg">
<path fill-rule="evenodd" clip-rule="evenodd" d="M20.1666 11.0007C20.1666 16.0633 16.0625 20.1673 10.9999 20.1673C5.93731 20.1673 1.83325 16.0633 1.83325 11.0007C1.83325 5.93804 5.93731 1.83398 10.9999 1.83398C16.0625 1.83398 20.1666 5.93804 20.1666 11.0007ZM13.7499 8.25065C13.7499 9.76943 12.5187 11.0007 10.9999 11.0007C9.48114 11.0007 8.24992 9.76943 8.24992 8.25065C8.24992 6.73187 9.48114 5.50065 10.9999 5.50065C12.5187 5.50065 13.7499 6.73187 13.7499 8.25065ZM10.9999 18.7923C12.6353 18.7923 14.153 18.2885 15.4063 17.4276C15.9598 17.0473 16.1964 16.323 15.8745 15.7336C15.2074 14.5117 13.8326 13.7507 10.9999 13.7507C8.16713 13.7507 6.79239 14.5117 6.12521 15.7336C5.80338 16.323 6.03993 17.0473 6.59346 17.4275C7.84675 18.2885 9.36449 18.7923 10.9999 18.7923Z" fill="#F64E2A"/>
</svg>
