<svg width="20" height="20" viewBox="0 0 20 20" fill="none" xmlns="http://www.w3.org/2000/svg">
<path fill-rule="evenodd" clip-rule="evenodd" d="M15.0003 2.5H5.00033C3.15938 2.5 1.66699 3.99238 1.66699 5.83333C1.66699 7.23224 2.52873 8.42988 3.75033 8.92437V5.83333C3.75033 5.50181 3.88202 5.18387 4.11644 4.94945C4.35086 4.71503 4.66881 4.58333 5.00033 4.58333H15.0003C15.3318 4.58333 15.6498 4.71503 15.8842 4.94945C16.1186 5.18387 16.2503 5.50181 16.2503 5.83333V8.92437C17.4719 8.42988 18.3337 7.23224 18.3337 5.83333C18.3337 3.99239 16.8413 2.5 15.0003 2.5ZM15.0003 15.8333L15.0003 5.83333H5.00033V15.8333C5.00033 16.7538 5.74652 17.5 6.66699 17.5H13.3337C14.2541 17.5 15.0003 16.7538 15.0003 15.8333ZM9.25033 12.3561L8.86399 11.9698C8.5711 11.6769 8.09622 11.6769 7.80333 11.9698C7.51044 12.2627 7.51044 12.7376 7.80333 13.0305L8.88074 14.1079C9.49907 14.7262 10.5016 14.7262 11.1199 14.1079L12.1973 13.0305C12.4902 12.7376 12.4902 12.2627 12.1973 11.9698C11.9044 11.6769 11.4296 11.6769 11.1367 11.9698L10.7503 12.3561V9.16679C10.7503 8.75258 10.4145 8.41679 10.0003 8.41679C9.58611 8.41679 9.25033 8.75258 9.25033 9.16679V12.3561Z" fill="white"/>
</svg>
